<svg xmlns="http://www.w3.org/2000/svg" width="9" height="6" viewBox="0 0 9 6">
    <g fill="none" fill-rule="evenodd">
        <g fill="#FFF" fill-rule="nonzero">
            <g>
                <g>
                    <g>
                        <g>
                            <path d="M8.747.248c-.333-.33-.87-.33-1.203 0L4.479 3.271 1.456.248c-.333-.33-.87-.33-1.203 0C.09.408 0 .627 0 .854c0 .228.09.446.253.607l3.62 3.62c.16.161.378.252.606.252.227 0 .446-.09.606-.252l3.662-3.62C8.91 1.3 9 1.082 9 .854 9 .627 8.91.41 8.747.248z" transform="translate(-850.000000, -344.000000) translate(540.000000, 156.000000) translate(15.000000, 142.000000) translate(195.000000, 34.000000) translate(100.000000, 12.000000)"/>
                        </g>
                    </g>
                </g>
            </g>
        </g>
    </g>
</svg>
