<svg xmlns="http://www.w3.org/2000/svg" width="15" height="18" viewBox="0 0 15 18">
    <g fill="none" fill-rule="evenodd" stroke-linecap="round" stroke-linejoin="round">
        <g fill="#767A80" fill-rule="nonzero">
            <g>
                <g>
                    <path d="M11.11 3.418C12.313 4.63 13 6.26 13 8c0 3.596-2.91 6.512-6.5 6.512-.204 0-.406-.01-.608-.03l.564.565c.197.198.215.508.054.727l-.054.063c-.198.198-.508.216-.726.054l-.062-.054-1.486-1.489c-.198-.198-.216-.508-.054-.727l.054-.062.233-.233.011-.012 1.242-1.244c.217-.218.57-.218.788 0 .197.199.215.509.054.727l-.054.063-.504.507c.182.019.364.028.548.028 2.974 0 5.386-2.415 5.386-5.395 0-1.44-.569-2.789-1.566-3.796-.217-.219-.216-.572.003-.79.218-.216.57-.215.787.004zM7.27.109l.062.054 1.486 1.489c.198.198.216.508.054.727l-.054.062-.23.23-.01.011L7.332 3.93c-.217.218-.57.218-.788 0-.197-.199-.215-.509-.054-.727l.054-.063.504-.507c-.182-.019-.364-.028-.548-.028C3.526 2.605 1.114 5.02 1.114 8c0 1.419.55 2.75 1.518 3.751.214.221.208.575-.013.79-.221.214-.574.208-.788-.014C.665 11.32 0 9.712 0 8c0-3.596 2.91-6.512 6.5-6.512.204 0 .406.01.608.03L6.544.952C6.347.755 6.33.445 6.49.226l.054-.063c.198-.198.508-.216.726-.054z" transform="translate(-869 -429) translate(540 130) translate(330 300)"/>
                </g>
            </g>
        </g>
    </g>
</svg>
