<svg xmlns="http://www.w3.org/2000/svg" width="40" height="34" viewBox="0 0 40 34">
    <g fill="none" fill-rule="evenodd">
        <g fill="#1D1D1D" fill-rule="nonzero">
            <g>
                <g>
                    <path d="M25.653 0c-2.637 0-4.793 2.156-4.793 4.793-3.08 0-5.592 2.512-5.592 5.592 0 3.08 2.512 5.592 5.592 5.592 3.08 0 5.592-2.512 5.592-5.592 0-.287-.031-.57-.075-.848 2.303-.347 4.07-2.347 4.07-4.744C30.446 2.156 28.29 0 25.652 0zm0 1.598c1.773 0 3.196 1.423 3.196 3.195 0 1.698-1.305 3.055-2.971 3.17-.674-1.388-1.9-2.461-3.395-2.92-.007-.084-.025-.166-.025-.25 0-1.772 1.423-3.195 3.195-3.195zm-.35 1.398l-1.198 1.198h.949v2.397h1.198V2.996h-.948zM20.86 6.39c2.215 0 3.994 1.779 3.994 3.994 0 2.216-1.779 3.995-3.994 3.995-2.216 0-3.995-1.78-3.995-3.995s1.78-3.994 3.995-3.994zm-.4 1.822l-1.448 1.448h1.124v2.896h1.448V8.213H20.46zm-9.611 7.764c-2.266 0-3.311.55-4.444.999C4.243 17.834.54 19.622.54 19.622c-.294.1-.5.362-.534.668-.034.309.112.609.378.77.262.16.596.154.855-.015 0 0 3.732-1.791 5.766-2.596 1.246-.493 1.81-.874 3.845-.874 4.487 0 4.353 2.02 6.191 3.12.662.397 1.701.703 2.871 1 .1.056.21.09.325.1.01.002.015-.004.025 0 1.32.32 2.72.573 3.794.573.468 0 .871.053 1.199.125h.05c.3.072.533.172.699.275.35.221.449.402.449.799 0 .465-.1.614-.45.824-.349.209-1.026.374-1.947.374h-4.643c-1.957 0-4.718-.774-4.718-.774-.428-.125-.874.122-.999.55-.125.427.122.873.55.998 0 0 2.817.824 5.167.824h4.643c1.08 0 1.998-.156 2.746-.6.216-.127.406-.286.575-.474.071-.025.137-.056.2-.1l7.19-4.843c1.244-.74 2.109-.933 2.62-.923.512.009.687.162.85.374.236.309.252.484.1.849-.154.365-.578.877-1.349 1.423-.958.68-11.515 7.695-12.757 8.413-.917.53-1.65 1.108-2.496 1.348-.846.24-1.857.222-3.495-.574-1.093-.53-5.717-2.946-7.215-3.72-.827-.427-1.508-.665-2.222-.624-.715.04-1.339.368-1.972.774l-2.147 1.398c-.372.24-.478.74-.237 1.11.24.372.74.478 1.11.238l2.147-1.398c.559-.356.874-.509 1.174-.524.3-.016.708.08 1.423.45 1.485.767 6.038 3.16 7.24 3.744 1.887.917 3.401.995 4.618.649 1.217-.347 2.088-1.042 2.871-1.498 1.663-.964 11.68-7.636 12.882-8.488.917-.65 1.563-1.33 1.897-2.122.334-.793.231-1.729-.3-2.422-.418-.546-1.151-.98-2.097-.998-.664-.013-1.47.23-2.346.624-.035-.162.047-.343-.025-.5-.272-.59-.893-.989-1.573-1.123-.89-.175-1.897.094-2.896.55-.072-.219-.128-.453-.274-.625-.428-.511-1.049-.68-1.623-.724-1.145-.087-2.334.284-3.196.8-1.195.71-4.768 2.964-5.292 3.295-1.067-.288-2.038-.628-2.322-.8-.73-.44-1.978-3.345-7.015-3.345zm17.7 1.648c.318.025.48.122.524.175.035.04.094.103.075.324v.025l-3.944 2.697c-.362-.057-.737-.075-1.149-.075-.42 0-.995-.075-1.622-.175 1.388-.874 3.108-1.944 3.87-2.397.536-.318 1.606-.624 2.246-.574zm4.094.749c.212-.019.387-.028.524 0 .331.066.372.134.425.25.037.084.056.3.025.574l-5.642 3.795c-.138-.578-.471-1.09-.949-1.448l3.295-2.272c.044-.028.088-.063.125-.1.044-.028.088-.063.125-.1.715-.434 1.504-.646 2.072-.699z" transform="translate(-700.000000, -227.000000) translate(686.000000, 210.000000) translate(14.000000, 17.000000)"/>
                </g>
            </g>
        </g>
    </g>
</svg>
