<svg width="32" height="30" xmlns="http://www.w3.org/2000/svg">
    <path d="M14 15.982V30H4c-1.102 0-2-.897-2-2.003V15.982h12zm16 0v12.015A2.002 2.002 0 0 1 28 30H18V15.982h12zM18.922 1.185c1.566-1.578 4.298-1.582 5.866 0a4.19 4.19 0 0 1 0 5.892c-.272.276-.662.584-1.116.895H30c1.104 0 2 .899 2 2.002v3.004c0 .553-.448 1.001-1 1.001H18V9.974h-4v4.005H1c-.552 0-1-.448-1-1V9.973c0-1.103.898-2.002 2-2.002h6.328c-.454-.31-.844-.62-1.118-.895a4.195 4.195 0 0 1 .002-5.892c1.566-1.578 4.298-1.578 5.866 0 .866.871 3.166 4.418 2.85 6.787h.144c-.318-2.37 1.982-5.916 2.85-6.787zm-8.776.779c-.572 0-1.11.224-1.516.633a2.186 2.186 0 0 0 0 3.068c.862.869 3.5 2.307 4.882 2.307.286 0 .37-.066.37-.066.466-.483-.874-3.951-2.222-5.31a2.122 2.122 0 0 0-1.514-.632zm13.224.633c-.814-.82-2.224-.815-3.03 0-1.348 1.358-2.688 4.826-2.222 5.309 0 .002.084.066.368.066 1.384 0 4.022-1.438 4.884-2.307.84-.845.84-2.223 0-3.068z" fill="#FFF" fill-rule="nonzero"/>
</svg>
