<svg width="16" height="16" xmlns="http://www.w3.org/2000/svg">
    <path d="M5.333 0c-1.096 0-2 .903-2 2 0 .259.186.439.278.667H0v4.666h.667V16h14.666V7.333H16V2.667h-3.61c.09-.228.277-.408.277-.667 0-1.097-.904-2-2-2C9.5 0 8.714.878 8.194 1.617c-.124.177-.097.185-.194.35-.097-.165-.07-.173-.194-.35C7.286.878 6.499 0 5.333 0zm0 1.333c.418 0 .964.455 1.382 1.05.099.14.079.15.157.284H5.333A.656.656 0 0 1 4.667 2c0-.377.29-.667.666-.667zm5.334 0c.376 0 .666.29.666.667 0 .377-.29.667-.666.667h-1.54c.08-.134.06-.144.158-.284.418-.595.964-1.05 1.382-1.05zM1.333 4h6v2h-6V4zm7.334 0h6v2h-6V4zM2 7.333h5.333v7.334H2V7.333zm6.667 0H14v7.334H8.667V7.333z" fill="#0E41F5" fill-rule="nonzero"/>
</svg>
