<svg width="20" height="20" viewBox="0 0 20 20" xmlns="http://www.w3.org/2000/svg">
    <path d="M6.667 0c-1.371 0-2.5 1.13-2.5 2.5 0 .324.232.548.346.833H0v5.834h.833V20h18.334V9.167H20V3.333h-4.513c.114-.285.346-.51.346-.833 0-1.37-1.129-2.5-2.5-2.5-1.457 0-2.441 1.098-3.09 2.021-.156.221-.121.231-.243.438-.122-.207-.087-.217-.243-.438C9.108 1.098 8.124 0 6.667 0zm0 1.667c.521 0 1.204.568 1.727 1.312.123.175.098.187.196.354H6.667a.82.82 0 0 1-.834-.833.82.82 0 0 1 .834-.833zm6.666 0a.82.82 0 0 1 .834.833.82.82 0 0 1-.834.833H11.41c.098-.167.073-.179.196-.354.523-.744 1.206-1.312 1.727-1.312zM1.667 5H9.167v2.5h-7.5V5zm9.166 0h7.5v2.5h-7.5V5zM2.5 9.167h6.667v9.166H2.5V9.167zm8.333 0H17.5v9.166h-6.667V9.167z" fill="#3A66FF" fill-rule="nonzero"/>
</svg>
