<svg xmlns="http://www.w3.org/2000/svg" width="18" height="18" viewBox="0 0 18 18">
    <g fill="none" fill-rule="evenodd">
        <g fill="#142533" fill-rule="nonzero">
            <g>
                <g>
                    <g>
                        <path d="M15.03 0H6.831v11.061h11.07V2.862c0-.76-.303-1.49-.841-2.027-.54-.537-1.27-.837-2.03-.835zM4.275 0H2.862C1.282 0 0 1.281 0 2.862v1.413h4.275V0zM0 6.831L4.275 6.831 4.275 11.106 0 11.106zM13.662 17.901h1.413c.76 0 1.49-.303 2.027-.841.537-.54.837-1.27.835-2.03v-1.368h-4.275v4.239zM6.831 13.662L11.106 13.662 11.106 17.937 6.831 17.937zM0 13.662v1.413c0 1.58 1.281 2.862 2.862 2.862h1.413v-4.275H0z" transform="translate(-578 -399) translate(540 163) translate(18 218) translate(20 18)"/>
                    </g>
                </g>
            </g>
        </g>
    </g>
</svg>
