<svg xmlns="http://www.w3.org/2000/svg" xmlns:xlink="http://www.w3.org/1999/xlink" width="146" height="33" viewBox="0 0 146 33">
    <defs>
        <path id="prefix__a" d="M9.523 18L9.523 15.397 4.333 15.397 4.333 5.769 1.223 5.769 1.223 18z"/>
        <path id="prefix__b" d="M13.96 18.122c1.363 0 2.412-.559 3.058-1.677V18h3.023V8.582h-3.023v4.648c0 1.275-.681 2.219-1.835 2.236-.96 0-1.572-.681-1.572-1.8V8.583h-3.023v5.94c0 2.202 1.328 3.6 3.372 3.6zM25.458 18v-4.665c0-1.276.716-2.202 1.87-2.237.995 0 1.607.682 1.607 1.8V18h3.022v-4.665c0-1.276.7-2.202 1.835-2.237.996 0 1.625.682 1.625 1.8V18h3.005v-5.94c0-2.202-1.328-3.618-3.39-3.618-1.554.018-2.708.734-3.32 2.132-.47-1.328-1.607-2.132-3.144-2.132-1.38.018-2.464.577-3.11 1.695V8.582h-3.006V18h3.006zm19.325.105c1.73 0 3.145-.612 4.106-1.66l-1.59-1.555c-.63.629-1.433.96-2.254.96-1.119 0-1.922-.628-2.22-1.746h6.623c.21-3.443-1.433-5.627-4.753-5.627-2.918 0-4.91 1.922-4.91 4.84 0 2.866 1.922 4.788 4.998 4.788zm1.764-5.626h-3.774c.192-1.136.909-1.905 1.957-1.905 1.084 0 1.817.751 1.817 1.905z"/>
        <path id="prefix__c" d="M54.113 18v-4.98c.123-1.118.822-1.904 1.922-1.904 1.014 0 1.66.681 1.66 1.782V18h3.006v-5.94c0-2.202-1.363-3.618-3.442-3.618-1.398.018-2.482.577-3.146 1.678V8.582h-3.022V18h3.022z"/>
        <path id="prefix__d" d="M67.445 18.105c2.726 0 4.893-1.293 4.893-3.74 0-4.42-6.465-3.214-6.465-5.329 0-.594.541-.89 1.345-.89.996 0 2.621.523 3.914 1.275l1.17-2.429c-1.257-.821-3.057-1.363-4.822-1.363-2.935 0-4.875 1.433-4.875 3.687 0 4.333 6.465 3.04 6.465 5.207 0 .699-.611 1.066-1.59 1.066-1.275 0-3.162-.734-4.42-1.835l-1.206 2.394c1.45 1.188 3.547 1.957 5.591 1.957z"/>
        <path id="prefix__e" d="M78.977 18L80.829 12.024 82.682 18 85.669 18 89.112 8.582 86.159 8.582 84.254 15.099 82.315 8.582 79.432 8.582 77.545 15.099 75.605 8.582 72.53 8.582 75.972 18z"/>
        <path id="prefix__f" d="M92.587 18.14c1.276 0 2.272-.42 2.883-1.223V18h2.953v-6.15c-.017-2.132-1.52-3.408-4.106-3.408-1.572 0-2.9.385-4.368 1.066l.856 1.992c.996-.507 2.027-.786 2.813-.786 1.223 0 1.835.559 1.835 1.485v.14h-2.481c-2.342.017-3.617 1.066-3.617 2.848 0 1.73 1.223 2.953 3.232 2.953zm.927-2.045c-.84 0-1.328-.436-1.328-1.118 0-.699.454-1.013 1.362-1.013h1.905v.838c-.192.77-.996 1.293-1.94 1.293zm10.169 5.295v-4.648c.664.874 1.66 1.363 2.883 1.363 2.638 0 4.35-1.905 4.35-4.77 0-2.918-1.764-4.858-4.42-4.858-1.188 0-2.15.49-2.813 1.346v-1.24h-3.023V21.39h3.023zm2.08-5.679c-1.224 0-2.08-.996-2.08-2.464 0-1.432.856-2.446 2.08-2.446 1.257 0 2.113 1.014 2.113 2.446 0 1.45-.856 2.464-2.114 2.464z"/>
    </defs>
    <g fill="none">
        <g transform="translate(33.478 4.495)">
            <use fill="#000" xlink:href="#prefix__a"/>
            <use fill="#232323" xlink:href="#prefix__a"/>
            <use fill="#000" xlink:href="#prefix__b"/>
            <use fill="#232323" xlink:href="#prefix__b"/>
            <use fill="#000" xlink:href="#prefix__c"/>
            <use fill="#232323" xlink:href="#prefix__c"/>
            <g>
                <use fill="#000" xlink:href="#prefix__d"/>
                <use fill="#232323" xlink:href="#prefix__d"/>
            </g>
            <g>
                <use fill="#000" xlink:href="#prefix__e"/>
                <use fill="#232323" xlink:href="#prefix__e"/>
            </g>
            <g>
                <use fill="#000" xlink:href="#prefix__f"/>
                <use fill="#232323" xlink:href="#prefix__f"/>
            </g>
        </g>
        <path fill="#0E41F5" d="M16.676 17.971L14.791 22.015 0 22.015 1.885 17.971 6.745 7.545 3.765 7.545 12.232 0.122 14.065 7.545 11.067 7.545 6.437 17.971z"/>
        <path fill="#0E41F5" d="M11.701 14.798L13.586 10.755 28.378 10.755 26.493 14.798 21.631 25.224 24.612 25.224 16.144 32.647 14.313 25.224 17.311 25.224 21.939 14.798z"/>
    </g>
</svg>
