<svg width="18" height="18" viewBox="0 0 18 18" xmlns="http://www.w3.org/2000/svg" xmlns:xlink="http://www.w3.org/1999/xlink">
    <defs>
        <path d="M8.25 0a8.252 8.252 0 0 1 8.247 8.016l.003.234a8.252 8.252 0 0 1-8.016 8.247l-.234.003A8.252 8.252 0 0 1 .003 8.484L0 8.25A8.252 8.252 0 0 1 8.016.003zm0 1.27-.206.002a6.978 6.978 0 0 0-6.775 6.969l.003.215a6.978 6.978 0 0 0 6.969 6.775l.215-.003a6.978 6.978 0 0 0 6.775-6.969l-.003-.215A6.98 6.98 0 0 0 8.25 1.269zm0 2.96c.321 0 .587.24.629.55l.006.085-.001 2.75h2.75a.635.635 0 0 1 .087 1.264l-.086.006-2.751-.001v2.75a.635.635 0 0 1-1.263.087l-.006-.086V8.884h-2.75a.635.635 0 0 1-.086-1.263l.086-.006h2.75v-2.75c0-.35.285-.634.635-.634z" id="soandmtofa"/>
    </defs>
    <use fill="#7A41FF" fill-rule="nonzero" xlink:href="#soandmtofa" transform="translate(.75 .75)"/>
</svg>
