<svg xmlns="http://www.w3.org/2000/svg" width="14" height="14" viewBox="0 0 14 14">
    <g fill="none" fill-rule="evenodd">
        <g fill="#AEB1B7" fill-rule="nonzero">
            <g>
                <g>
                    <path d="M6.503 9.303c-.03.033-.058.068-.084.105-.026.039-.048.081-.063.126-.02.04-.034.082-.042.126-.003.047-.003.093 0 .14-.002.092.017.183.056.266.064.176.202.314.378.378.17.075.363.075.532 0 .176-.064.314-.202.378-.378.031-.085.045-.175.042-.266.001-.186-.072-.365-.203-.497-.131-.133-.31-.207-.497-.207s-.366.074-.497.207zM7 0C3.134 0 0 3.134 0 7s3.134 7 7 7 7-3.134 7-7c0-1.857-.737-3.637-2.05-4.95C10.637.737 8.857 0 7 0zm0 12.6c-3.093 0-5.6-2.507-5.6-5.6 0-3.093 2.507-5.6 5.6-5.6 3.093 0 5.6 2.507 5.6 5.6 0 1.485-.59 2.91-1.64 3.96C9.91 12.01 8.485 12.6 7 12.6zm0-9.1c-.75 0-1.445.4-1.82 1.05-.138.217-.146.492-.02.717.125.224.363.362.62.358.257-.003.492-.147.611-.375.126-.217.358-.351.609-.35.387 0 .7.313.7.7 0 .387-.313.7-.7.7-.387 0-.7.313-.7.7v.7c0 .387.313.7.7.7.387 0 .7-.313.7-.7v-.126c.955-.347 1.526-1.328 1.353-2.33C8.881 4.243 8.016 3.508 7 3.5z" transform="translate(-206.000000, -205.000000) translate(82.000000, 186.000000) translate(124.000000, 19.000000)"/>
                </g>
            </g>
        </g>
    </g>
</svg>
