<svg width="18" height="18" viewBox="0 0 18 18" xmlns="http://www.w3.org/2000/svg" xmlns:xlink="http://www.w3.org/1999/xlink">
    <defs>
        <path d="M11.538 3.55A6.739 6.739 0 0 1 13.5 8.307c0 3.734-3.022 6.762-6.75 6.762-.212 0-.422-.01-.632-.03l.586.586a.58.58 0 0 1 .056.755l-.056.065a.578.578 0 0 1-.753.056l-.065-.056L4.343 14.9a.58.58 0 0 1-.056-.755l.056-.065 1.543-1.545a.578.578 0 0 1 .874.754l-.056.065-.525.527a5.598 5.598 0 0 0 4.537-9.515.578.578 0 1 1 .821-.817zM7.549.113l.065.056 1.543 1.545a.58.58 0 0 1 .056.755l-.056.065-1.543 1.546a.578.578 0 0 1-.874-.755l.056-.065.524-.526a5.598 5.598 0 0 0-6.163 5.573c0 1.473.571 2.855 1.576 3.895a.578.578 0 1 1-.831.806A6.745 6.745 0 0 1 0 8.308c0-3.735 3.022-6.762 6.75-6.762.212 0 .422.01.632.03L6.796.989A.58.58 0 0 1 6.74.235L6.796.17a.578.578 0 0 1 .753-.056z" id="a"/>
    </defs>
    <g transform="translate(2.25 .75)" fill="none" fill-rule="evenodd">
        <mask id="b" fill="#fff">
            <use xlink:href="#a"/>
        </mask>
        <use fill="#8D8F9A" fill-rule="nonzero" xlink:href="#a"/>
        <g mask="url(#b)">
            <path fill="#8D8F9A" d="M-2.25-.75h18v18h-18z"/>
        </g>
    </g>
</svg>
