<svg width="22" height="22" viewBox="0 0 22 22" xmlns="http://www.w3.org/2000/svg">
    <path d="M11 17.744c.353 0 .645.263.691.603l.007.095v1.86a.698.698 0 0 1-1.39.095l-.006-.095v-1.86c0-.385.313-.698.698-.698zm-5.423-1.321c.248.248.27.635.068.908l-.068.079-.66.66a.698.698 0 0 1-1.055-.908l.068-.079.66-.66a.698.698 0 0 1 .987 0zm11.754-.068.079.068.66.66a.698.698 0 0 1-.908 1.055l-.079-.068-.66-.66a.698.698 0 0 1 .908-1.055zm-2.549-9.137a5.349 5.349 0 1 1-7.564 7.564 5.349 5.349 0 0 1 7.564-7.564zm-6.578.986a3.953 3.953 0 1 0 5.736.153l-.144-.153-.153-.144a3.954 3.954 0 0 0-5.439.144zm12.098 2.098a.698.698 0 0 1 .095 1.39l-.095.006h-1.86a.698.698 0 0 1-.095-1.39l.095-.006h1.86zm-16.744 0a.698.698 0 0 1 .095 1.39l-.095.006h-1.86a.698.698 0 0 1-.095-1.39l.095-.006h1.86zM18.07 3.93c.248.248.27.635.068.908l-.068.079-.66.66a.698.698 0 0 1-1.055-.908l.068-.079.66-.66a.698.698 0 0 1 .987 0zM4.838 3.862l.079.068.66.66a.698.698 0 0 1-.908 1.055l-.079-.068-.66-.66a.698.698 0 0 1 .908-1.055zM11 1c.353 0 .645.262.691.603l.007.095v1.86a.698.698 0 0 1-1.39.095l-.006-.095v-1.86c0-.386.313-.698.698-.698z" fill="#0E41F5" fill-rule="nonzero" stroke-linecap="round" stroke-linejoin="round"/>
</svg>
