<svg width="36" height="36" xmlns="http://www.w3.org/2000/svg">
    <path d="m35.42 10.786-2.232-2.231a.722.722 0 0 0-.959-.054c-.643.518-1.363.779-2.138.779a3.384 3.384 0 0 1-3.381-3.381c0-.776.261-1.495.776-2.142a.719.719 0 0 0-.051-.958L25.203.571c-.758-.762-2.13-.76-2.886-.003L18.46 4.4l.989.99a.72.72 0 1 1-1.018 1.017l-.992-.992L.588 22.154c-.38.38-.588.891-.588 1.442 0 .554.208 1.065.587 1.444l2.232 2.232a.719.719 0 0 0 .958.053c.683-.548 1.47-.851 2.212-.851a3.386 3.386 0 0 1 3.38 3.38 3.24 3.24 0 0 1-.823 2.182.72.72 0 0 0 .028.992l2.23 2.228c.378.38.893.59 1.444.59.55 0 1.065-.21 1.444-.59l16.795-16.795-.978-.975a.72.72 0 1 1 1.017-1.017l.978.975 3.811-3.81c.396-.318.644-.79.68-1.308a1.987 1.987 0 0 0-.576-1.54zm-14.974-3.38a.72.72 0 0 1 1.017 0l1.009 1.008a.72.72 0 1 1-1.018 1.018l-1.008-1.01a.72.72 0 0 1 0-1.017zM18.65 21.15l-.933 4.244-2.159-3.814-4.316.36 2.948-3.238-1.726-4.027 3.957 1.798 3.31-2.877-.575 4.46 3.74 2.231-4.246.863zm6.851-8.69a.72.72 0 0 1-1.017 0l-1.009-1.009a.72.72 0 1 1 1.017-1.017l1.01 1.009a.72.72 0 0 1 0 1.017zm3.03 3.03a.72.72 0 0 1-1.017 0l-1.01-1.01a.72.72 0 1 1 1.018-1.016l1.009 1.008a.72.72 0 0 1 0 1.018z" fill="#0E41F5" fill-rule="nonzero"/>
</svg>
