<?xml version="1.0" encoding="UTF-8"?>
<svg width="22px" height="22px" viewBox="0 0 22 22" version="1.1" xmlns="http://www.w3.org/2000/svg" xmlns:xlink="http://www.w3.org/1999/xlink">
    <title>29968225-F6B4-4BF7-B6B0-579C69FCE797</title>
    <g id="Merket-&amp;-Rewards" stroke="none" stroke-width="1" fill="none" fill-rule="evenodd">
        <g id="Market--Known-assets" transform="translate(-82.000000, -121.000000)" fill-rule="nonzero">
            <g id="icons8-down_right" transform="translate(82.000000, 121.000000)">
                <path d="M0,11 C0,4.92583636 4.92583636,0 11,0 C17.0741636,0 22,4.92583636 22,11 C22,17.0741636 17.0741636,22 11,22 C4.92583636,22 0,17.0741636 0,11 Z" id="Path" fill="#0E41F5"></path>
                <path d="M16.4534462,11.2261185 C16.4312777,10.955663 16.267231,10.7827489 16.0632809,10.7029424 C15.8593309,10.6009674 15.6154776,10.605401 15.3982265,10.7827489 C15.3671906,10.8049174 15.3405885,10.8270859 15.31842,10.853688 C15.0568319,11.1152761 14.7996775,11.3724305 14.5380895,11.6340185 C13.611447,10.7073761 12.6848045,9.78073358 11.758162,8.85409109 C11.5276098,8.6235389 11.2660218,8.54816606 11.0177348,8.57476824 C10.8004837,8.57920193 10.5743652,8.66344216 10.3748489,8.86295848 C9.9846836,9.25312374 9.59451834,9.643289 9.19991939,10.0378879 C8.40185409,9.23982265 7.60378879,8.44175736 6.81015719,7.64812576 C5.91898428,6.75695284 4.54453849,8.14469972 5.43571141,9.03587263 C6.4643289,10.0644901 7.4885127,11.0886739 8.51269649,12.1128577 C8.74324869,12.3434099 9.00483676,12.4187827 9.25312374,12.3921806 C9.47037485,12.3877469 9.69649335,12.3035067 9.89600967,12.1039903 C10.2861749,11.7138251 10.6763402,11.3236598 11.0709391,10.9290609 C11.7670294,11.6251511 12.4631197,12.3212414 13.15921,13.0173317 C12.8887545,13.2877872 12.6182991,13.5582426 12.3478436,13.8286981 C11.948811,14.2277308 12.2414349,14.9371221 12.8045143,14.9371221 C13.8065296,14.9371221 14.8041112,14.9371221 15.8061266,14.9371221 C16.1608222,14.9371221 16.4623136,14.6489319 16.4623136,14.2898025 C16.4623136,13.2922209 16.4623136,12.299073 16.4623136,11.3014913 C16.4578799,11.2748892 16.4578799,11.2527207 16.4534462,11.2261185 Z" id="Path" fill="#FFFFFF" transform="translate(10.804605, 11.149093) scale(1, -1) translate(-10.804605, -11.149093) "></path>
            </g>
        </g>
    </g>
</svg>