<svg width="13" height="13" xmlns="http://www.w3.org/2000/svg">
    <path d="M3.556 9.234a.492.492 0 0 1-.086-.636l.04-.05 4.032-4.323-2.93.009a.526.526 0 0 1-.51-.412l-.01-.072a.45.45 0 0 1 .383-.482l.072-.005 4.045-.016a.512.512 0 0 1 .51.246c0 .003 0 .005.002.007.014.02.025.04.034.062l.01.026a.355.355 0 0 1 .02.072l.005.026.002.018.004.028.272 4.104a.451.451 0 0 1-.454.488.526.526 0 0 1-.509-.412l-.01-.072-.195-2.938-4.039 4.33c-.177.19-.485.191-.688.002z" fill="#8D8F9A" fill-rule="nonzero" stroke-linecap="round" stroke-linejoin="round"/>
</svg>
