<svg xmlns="http://www.w3.org/2000/svg" width="16" height="17" viewBox="0 0 16 17">
    <g fill="none" fill-rule="evenodd">
        <g fill="#0E41F5" fill-rule="nonzero">
            <g>
                <g>
                    <g>
                        <path d="M11.174 0C8.63 0 6.56 2.07 6.56 4.615c0 .78.197 1.515.54 2.16L.421 13.51c-.537.542-.533 1.415.008 1.951.27.267.62.4.971.4.355 0 .71-.136.98-.408l.78-.788 1.697 1.696 1.01-1.01-.814-.835.593-.578.806.828.746-.745-1.707-1.707 3.571-3.602c.634.327 1.351.516 2.112.516 2.545 0 4.615-2.07 4.615-4.615C15.789 2.07 13.719 0 11.174 0zm0 7.574c-1.632 0-2.96-1.327-2.96-2.96 0-1.631 1.328-2.959 2.96-2.959s2.96 1.328 2.96 2.96-1.328 2.96-2.96 2.96z" transform="translate(-579 -244) translate(540 163) translate(18 62) translate(21 19)"/>
                    </g>
                </g>
            </g>
        </g>
    </g>
</svg>
