<svg xmlns="http://www.w3.org/2000/svg" width="14" height="28" viewBox="0 0 14 28">
    <g fill="none" fill-rule="evenodd">
        <g fill-rule="nonzero">
            <g>
                <g>
                    <g>
                        <path fill="#B8BAC4" d="M6.94 26.602c-.655.396-1.501.45-2.233.045l-1.918-1.061C.82 24.496.113 22.013 1.217 20.05l1.864-3.311 2.902 8.664c.174.528.524.94.957 1.198zM13.268 9.36l-2.47 7.38L6.94 9.887l5.4-9.596c.269-.478.991-.327 1.047.216l.417 3.913c.18 1.666-.004 3.352-.536 4.94z" transform="translate(-580 -575) translate(540 163) translate(18 399) translate(22 13)"/>
                        <path fill="#000" d="M10.797 16.74l-2.899 8.664c-.176.525-.525.936-.957 1.197-.433-.259-.784-.67-.958-1.197L3.082 16.74 6.94 9.887l3.856 6.853z" transform="translate(-580 -575) translate(540 163) translate(18 399) translate(22 13)"/>
                        <path fill="#B8BAC4" d="M6.94 9.887L3.08 16.74.61 9.36C.078 7.772-.106 6.086.073 4.42L.49.507c.059-.544.779-.695 1.047-.216L6.94 9.887zM11.089 25.585l-1.916 1.061c-.735.405-1.58.35-2.233-.045.433-.26.781-.672.957-1.197l2.9-8.664 1.863 3.311c1.105 1.962.399 4.445-1.571 5.534z" transform="translate(-580 -575) translate(540 163) translate(18 399) translate(22 13)"/>
                    </g>
                </g>
            </g>
        </g>
    </g>
</svg>
