<svg xmlns="http://www.w3.org/2000/svg" width="16" height="23" viewBox="0 0 16 23">
    <g fill="none" fill-rule="evenodd">
        <g fill="#000" fill-rule="nonzero">
            <g>
                <g>
                    <g>
                        <path d="M7.79.002c-3.1 0-5.608 2.508-5.608 5.609v2.102c-1.09.197-2.18.46-2.18.8v10.971s0 .304.34.448c1.236.5 6.097 2.22 7.214 2.615.144.053.185.053.222.053.053 0 .078 0 .222-.053 1.117-.394 5.99-2.115 7.227-2.615.315-.132.328-.435.328-.435V8.514c0-.341-1.076-.617-2.168-.801V5.61C13.403 2.51 10.878 0 7.791 0zm0 2.68c1.827 0 2.932 1.105 2.932 2.932V7.44c-2.05-.144-3.798-.144-5.86 0V5.614c0-1.83 1.105-2.932 2.929-2.932zm-.012 7.449c2.55 0 4.69.197 4.69.55v6.845c0 .106-.013.119-.107.157-.09.04-4.348 1.576-4.348 1.576s-.172.053-.222.053c-.054 0-.223-.065-.223-.065S3.311 17.71 3.22 17.67c-.09-.04-.106-.053-.106-.156v-6.845c-.025-.354 2.114-.538 4.664-.538z" transform="translate(-579 -577) translate(540 163) translate(18 399) translate(21 15)"/>
                    </g>
                </g>
            </g>
        </g>
    </g>
</svg>
